name Walk10.mot
datacolumns 19
datarows 15
range 3.13000000 3.14400000
endheader

                time	   L_ground_force_vx	   L_ground_force_vy	   L_ground_force_vz	   L_ground_force_px	   L_ground_force_py	   L_ground_force_pz	   R_ground_force_vx	   R_ground_force_vy	   R_ground_force_vz	   R_ground_force_px	   R_ground_force_py	   R_ground_force_pz	   L_ground_torque_x	   L_ground_torque_y	   L_ground_torque_z	   R_ground_torque_x	   R_ground_torque_y	   R_ground_torque_z	
          3.13000000	          0.00000000	          0.00000000	          0.00000000	          0.00000000	          0.00000000	          0.00000000	         19.49509109	        735.17650553	         41.35230580	         -0.15085310	          0.00000000	         -0.05818024	          0.00000000	          0.00000000	          0.00000000	          0.00000000	         -0.07977903	          0.00000000	
          3.13100000	          0.00000000	          0.00000000	          0.00000000	          0.00000000	          0.00000000	          0.00000000	         20.02594244	        736.85861442	         41.53788501	         -0.15056711	          0.00000000	         -0.05836814	          0.00000000	          0.00000000	          0.00000000	          0.00000000	         -0.11457088	          0.00000000	
          3.13200000	          0.00000000	          0.00000000	          0.00000000	          0.00000000	          0.00000000	          0.00000000	         20.56468668	        738.63597976	         41.74724071	         -0.15027518	          0.00000000	         -0.05850720	          0.00000000	          0.00000000	          0.00000000	          0.00000000	         -0.12513182	          0.00000000	
          3.13300000	          0.00000000	          0.00000000	          0.00000000	          0.00000000	          0.00000000	          0.00000000	         21.13949728	        740.53796453	         41.96639624	         -0.14994806	          0.00000000	         -0.05856530	          0.00000000	          0.00000000	          0.00000000	          0.00000000	         -0.11347268	          0.00000000	
          3.13400000	          0.00000000	          0.00000000	          0.00000000	          0.00000000	          0.00000000	          0.00000000	         21.77610937	        742.57595957	         42.18860369	         -0.14957996	          0.00000000	         -0.05856739	          0.00000000	          0.00000000	          0.00000000	          0.00000000	         -0.08532924	          0.00000000	
          3.13500000	          0.00000000	          0.00000000	          0.00000000	          0.00000000	          0.00000000	          0.00000000	         22.47668467	        744.71020974	         42.41441176	         -0.14917574	          0.00000000	         -0.05855873	          0.00000000	          0.00000000	          0.00000000	          0.00000000	         -0.04776895	          0.00000000	
          3.13600000	          0.00000000	          0.00000000	          0.00000000	          0.00000000	          0.00000000	          0.00000000	         23.21841679	        746.84422422	         42.65100056	         -0.14874420	          0.00000000	         -0.05855638	          0.00000000	          0.00000000	          0.00000000	          0.00000000	         -0.00951466	          0.00000000	
          3.13700000	          0.00000000	          0.00000000	          0.00000000	          0.00000000	          0.00000000	          0.00000000	         23.97207206	        748.88564684	         42.91567881	         -0.14830355	          0.00000000	         -0.05855421	          0.00000000	          0.00000000	          0.00000000	          0.00000000	          0.01850164	          0.00000000	
          3.13800000	          0.00000000	          0.00000000	          0.00000000	          0.00000000	          0.00000000	          0.00000000	         24.72018557	        750.82510156	         43.23030714	         -0.14788281	          0.00000000	         -0.05855179	          0.00000000	          0.00000000	          0.00000000	          0.00000000	          0.02659721	          0.00000000	
          3.13900000	          0.00000000	          0.00000000	          0.00000000	          0.00000000	          0.00000000	          0.00000000	         25.45806254	        752.72905582	         43.60139566	         -0.14751161	          0.00000000	         -0.05855125	          0.00000000	          0.00000000	          0.00000000	          0.00000000	          0.01303004	          0.00000000	
          3.14000000	          0.00000000	          0.00000000	          0.00000000	          0.00000000	          0.00000000	          0.00000000	         26.18692390	        754.65683062	         44.01562019	         -0.14720490	          0.00000000	         -0.05854054	          0.00000000	          0.00000000	          0.00000000	          0.00000000	         -0.01437007	          0.00000000	
          3.14100000	          0.00000000	          0.00000000	          0.00000000	          0.00000000	          0.00000000	          0.00000000	         26.91830938	        756.62023564	         44.45942335	         -0.14695617	          0.00000000	         -0.05850161	          0.00000000	          0.00000000	          0.00000000	          0.00000000	         -0.04576340	          0.00000000	
          3.14200000	          0.00000000	          0.00000000	          0.00000000	          0.00000000	          0.00000000	          0.00000000	         27.67508060	        758.60768658	         44.92564620	         -0.14674685	          0.00000000	         -0.05843672	          0.00000000	          0.00000000	          0.00000000	          0.00000000	         -0.07562242	          0.00000000	
          3.14300000	          0.00000000	          0.00000000	          0.00000000	          0.00000000	          0.00000000	          0.00000000	         28.46740635	        760.61804613	         45.39688700	         -0.14656169	          0.00000000	         -0.05837490	          0.00000000	          0.00000000	          0.00000000	          0.00000000	         -0.09841196	          0.00000000	
          3.14400000	          0.00000000	          0.00000000	          0.00000000	          0.00000000	          0.00000000	          0.00000000	         29.27491023	        762.67100069	         45.83702186	         -0.14638963	          0.00000000	         -0.05835144	          0.00000000	          0.00000000	          0.00000000	          0.00000000	         -0.10405354	          0.00000000	
